<svg width="43" height="44" viewBox="0 0 43 44" fill="none" xmlns="http://www.w3.org/2000/svg">
<path d="M23.09 39H5C3.346 39 2 37.654 2 36V13H37V23.69C37 24.243 37.447 24.69 38 24.69C38.553 24.69 39 24.243 39 23.69V8C39 5.243 36.757 3 34 3H31C31 1.346 29.654 0 28 0C26.346 0 25 1.346 25 3H14C14 1.346 12.654 0 11 0C9.346 0 8 1.346 8 3H5C2.243 3 0 5.243 0 8V36C0 38.757 2.243 41 5 41H23.09C23.643 41 24.09 40.553 24.09 40C24.09 39.447 23.643 39 23.09 39ZM27 3C27 2.449 27.448 2 28 2C28.552 2 29 2.449 29 3V5C29 5.551 28.552 6 28 6C27.448 6 27 5.551 27 5V3ZM10 3C10 2.449 10.448 2 11 2C11.552 2 12 2.449 12 3V5C12 5.551 11.552 6 11 6C10.448 6 10 5.551 10 5V3ZM2 8C2 6.346 3.346 5 5 5H8C8 6.654 9.346 8 11 8C12.654 8 14 6.654 14 5H25C25 6.654 26.346 8 28 8C29.654 8 31 6.654 31 5H34C35.654 5 37 6.346 37 8V11H2V8Z" fill="#CFCFCF"/>
<path d="M34 26C29.037 26 25 30.037 25 35C25 39.963 29.037 44 34 44C38.963 44 43 39.963 43 35C43 30.037 38.963 26 34 26ZM34 42C30.141 42 27 38.859 27 35C27 31.141 30.141 28 34 28C37.859 28 41 31.141 41 35C41 38.859 37.859 42 34 42Z" fill="#CFCFCF"/>
<path d="M12 19C12 17.897 11.103 17 10 17H7C5.897 17 5 17.897 5 19V22C5 23.103 5.897 24 7 24H10C11.103 24 12 23.103 12 22V19ZM7 22V19H10V22H7Z" fill="#CFCFCF"/>
<path d="M23 19C23 17.897 22.103 17 21 17H18C16.897 17 16 17.897 16 19V22C16 23.103 16.897 24 18 24H21C22.103 24 23 23.103 23 22V19ZM18 22V19H21V22H18Z" fill="#CFCFCF"/>
<path d="M29 17C27.897 17 27 17.897 27 19V22C27 23.103 27.897 24 29 24H32C33.103 24 34 23.103 34 22V19C34 17.897 33.103 17 32 17H29ZM29 22V19H32V22H29Z" fill="#CFCFCF"/>
<path d="M10 28H7C5.897 28 5 28.897 5 30V33C5 34.103 5.897 35 7 35H10C11.103 35 12 34.103 12 33V30C12 28.897 11.103 28 10 28ZM7 33V30H10L10.002 33H7Z" fill="#CFCFCF"/>
<path d="M21 28H18C16.897 28 16 28.897 16 30V33C16 34.103 16.897 35 18 35H21C22.103 35 23 34.103 23 33V30C23 28.897 22.103 28 21 28ZM18 33V30H21L21.002 33H18Z" fill="#CFCFCF"/>
<path d="M36.2928 32.293L32.9998 35.586L31.7068 34.293C31.3158 33.902 30.6838 33.902 30.2928 34.293C29.9018 34.684 29.9018 35.316 30.2928 35.707L32.2928 37.707C32.4878 37.902 32.7438 38 32.9998 38C33.2558 38 33.5118 37.902 33.7068 37.707L37.7068 33.707C38.0978 33.316 38.0978 32.684 37.7068 32.293C37.3158 31.902 36.6838 31.902 36.2928 32.293Z" fill="#CFCFCF"/>
</svg>
