<svg width="42" height="51" viewBox="0 0 42 51" fill="none" xmlns="http://www.w3.org/2000/svg">
<path d="M8.64018 0.5H33.2099C37.7264 0.5 41.35 4.10314 41.35 8.48746V42.3459C41.35 46.7302 37.7264 50.3333 33.2099 50.3333H8.64018C4.12361 50.3333 0.5 46.7302 0.5 42.3459V8.48746C0.5 4.10314 4.12361 0.5 8.64018 0.5ZM8.64018 1.96207C5.0236 1.96207 2.03482 4.8662 2.03482 8.48746V42.3459C2.03482 45.9671 5.0236 48.8713 8.64018 48.8713H33.2099C36.8264 48.8713 39.8151 45.9671 39.8151 42.3459V8.48746C39.8151 4.8662 36.8264 1.96207 33.2099 1.96207H31.5217V8.48746C31.5211 10.1866 30.0853 11.6357 28.2967 11.6359H13.5533C11.7646 11.6357 10.3289 10.1866 10.3283 8.48746V1.96207H8.64018ZM23.2913 22.0481L23.3124 22.0503H23.3332C24.0434 22.0503 24.6249 22.5109 24.7989 23.195L26.1992 28.7089L26.4049 29.5236H30.7049C31.1422 29.5238 31.4712 29.8843 31.4714 30.2535V30.499C31.3643 30.7677 31.0917 30.9835 30.7533 30.9835H26.7975C25.8565 30.9835 25.0868 30.3699 24.8659 29.5023L24.8638 29.4961L24.299 27.3188L23.3186 23.5377L22.2268 27.2893L19.745 35.8268C19.5757 36.4099 19.0727 36.8439 18.4475 36.9102H18.2459C17.7318 36.91 17.2683 36.6695 16.9735 36.2606L16.8581 36.0764L14.5044 31.5633L14.2021 30.9835H11.0715C10.634 30.9835 10.3031 30.6229 10.3031 30.2535C10.3032 29.8843 10.6341 29.5238 11.0715 29.5236H13.9228C14.6926 29.5238 15.3691 29.9409 15.6928 30.5772L15.697 30.5857L16.9987 33.1016L18.2354 35.4882L18.9829 32.9027L21.8089 23.1568L21.811 23.1484C22.0039 22.4624 22.565 22.0204 23.2913 22.0481ZM11.8652 8.48746C11.8657 9.44766 12.64 10.1737 13.5533 10.1738H28.2967C29.21 10.1737 29.9842 9.44766 29.9849 8.48746V1.96207H11.8652V8.48746Z" fill="#CFCFCF" stroke="#CFCFCF"/>
</svg>
