<svg width="42" height="42" viewBox="0 0 42 42" fill="none" xmlns="http://www.w3.org/2000/svg">
<path d="M20.6074 0.200195H27.0742C27.8432 0.200276 28.4668 0.823725 28.4668 1.59277C28.4667 2.36174 27.8432 2.98527 27.0742 2.98535H20.7041C16.6919 2.98535 13.7939 2.98702 11.5469 3.23047C9.32615 3.47109 7.90653 3.93454 6.78809 4.74707C6.00496 5.31605 5.31605 6.00496 4.74707 6.78809C3.93454 7.90653 3.47109 9.32615 3.23047 11.5469C2.98702 13.7939 2.98535 16.6919 2.98535 20.7041C2.98535 24.2146 2.98693 26.8716 3.15039 28.9863L3.23047 29.8604C3.4711 32.0813 3.93442 33.5016 4.74707 34.6201C5.316 35.4031 6.00507 36.0913 6.78809 36.6602C7.90654 37.4727 9.32614 37.936 11.5469 38.1768C13.7939 38.4203 16.6919 38.4219 20.7041 38.4219C24.7161 38.4219 27.6133 38.4203 29.8604 38.1768C32.0813 37.936 33.5016 37.4728 34.6201 36.6602C35.4029 36.0914 36.0914 35.4029 36.6602 34.6201C37.4728 33.5016 37.936 32.0813 38.1768 29.8604C38.4203 27.6133 38.4219 24.7161 38.4219 20.7041V14.333C38.422 13.5642 39.0456 12.9406 39.8145 12.9404C40.5834 12.9404 41.2069 13.5641 41.207 14.333V20.7998C41.207 24.7037 41.2075 27.7482 40.9463 30.1602C40.68 32.6181 40.1292 34.5843 38.9141 36.2568C38.1734 37.2763 37.2763 38.1734 36.2568 38.9141C34.5843 40.1292 32.6181 40.68 30.1602 40.9463C27.7482 41.2075 24.7037 41.207 20.7998 41.207H20.6074C16.7035 41.207 13.6591 41.2075 11.2471 40.9463C8.94277 40.6966 7.0708 40.1966 5.46777 39.1338L5.15039 38.9141L4.77441 38.6289C3.90959 37.9472 3.14236 37.1489 2.49414 36.2568C1.27905 34.5843 0.72822 32.6182 0.461914 30.1602C0.200594 27.7482 0.200174 24.7039 0.200195 20.7998V20.6074C0.200174 16.7034 0.200597 13.6591 0.461914 11.2471C0.728225 8.78917 1.27907 6.82279 2.49414 5.15039C3.23476 4.13112 4.1311 3.23476 5.15039 2.49414C6.82277 1.27908 8.78917 0.728225 11.2471 0.461914C13.6591 0.200597 16.7034 0.200174 20.6074 0.200195Z" fill="#CFCFCF" stroke="#08123A" stroke-width="0.4"/>
<path d="M8.65628 26.0695C8.26892 26.8592 8.59506 27.8135 9.38473 28.2008C10.1744 28.5881 11.1286 28.2619 11.5159 27.4722L14.6169 21.1507C15.5781 19.1912 18.4031 19.2869 19.2293 21.307C21.0962 25.8703 27.4781 26.0864 29.6495 21.6599L32.7506 15.3383C33.1379 14.5486 32.8118 13.5944 32.0221 13.2071C31.2323 12.8197 30.2783 13.1458 29.8907 13.9355L26.7899 20.2571C25.8288 22.2167 23.0037 22.1209 22.1775 20.1008C20.3106 15.5375 13.9286 15.3213 11.7572 19.7479L8.65628 26.0695Z" fill="#CFCFCF"/>
<path fill-rule="evenodd" clip-rule="evenodd" d="M30 5.71611C30 8.64799 32.3768 11.0248 35.3086 11.0248C38.2405 11.0248 40.6173 8.64799 40.6173 5.71611C40.6173 2.78423 38.2405 0.407471 35.3086 0.407471C32.3768 0.407471 30 2.78423 30 5.71611ZM33.1852 5.71611C33.1852 6.88885 34.1359 7.83957 35.3086 7.83957C36.4814 7.83957 37.4321 6.88885 37.4321 5.71611C37.4321 4.54337 36.4814 3.59266 35.3086 3.59266C34.1359 3.59266 33.1852 4.54337 33.1852 5.71611Z" fill="#CFCFCF" stroke="#08123A" stroke-width="0.5"/>
</svg>
