<svg width="45" height="57" viewBox="0 0 45 57" fill="none" xmlns="http://www.w3.org/2000/svg">
<path d="M19.5659 29.7878C19.9715 27.678 20.3784 25.5681 20.7864 23.4583C20.939 22.6507 21.094 21.8445 21.2516 21.0396" stroke="#CFCFCF" stroke-width="2" stroke-linecap="round" stroke-linejoin="round"/>
<path d="M22.3028 15.5507L22.6825 13.5859C22.8614 12.6572 23.0403 11.7269 23.2189 10.7951C23.2723 10.5294 23.2475 10.2539 23.1476 10.002C23.0478 9.7501 22.8769 9.5325 22.6561 9.37555C22.2343 9.08204 21.7918 8.81974 21.3317 8.59079C19.22 7.5313 16.8362 7.13814 14.4961 7.4633C14.0352 7.52864 13.5789 7.62259 13.1297 7.7446C12.8164 7.82849 12.5346 8.00245 12.3192 8.24492C12.1037 8.4874 11.9642 8.78775 11.9178 9.10876C11.0273 15.4498 10.0375 21.6581 9.04102 27.8599" stroke="#CFCFCF" stroke-width="2" stroke-linecap="round" stroke-linejoin="round"/>
<path d="M23.0239 16.0547C22.7336 15.7759 22.3892 15.5595 22.0121 15.4188C21.6352 15.2781 21.2332 15.216 20.8313 15.2365C20.4293 15.2569 20.0358 15.3594 19.675 15.5377C19.3142 15.716 18.9936 15.9662 18.7332 16.273C18.4727 16.5798 18.2777 16.9367 18.1604 17.3217C18.043 17.7067 18.0057 18.1116 18.0507 18.5115C18.0958 18.9115 18.2222 19.298 18.4222 19.6472C18.6222 19.9965 18.8916 20.3011 19.2138 20.5423C19.7555 20.9577 20.4383 21.1447 21.116 21.0632C21.4851 20.9984 21.8373 20.8597 22.1516 20.6554C22.466 20.4512 22.7358 20.1857 22.945 19.8747C23.7471 18.7338 23.935 16.9314 23.0239 16.0547Z" stroke="#CFCFCF" stroke-width="2" stroke-linecap="round" stroke-linejoin="round"/>
<path d="M14.4966 7.46468C14.7288 5.8568 14.9587 4.24894 15.1664 2.62951C15.1988 2.35975 15.3032 2.10369 15.4685 1.88811C15.6339 1.67253 15.8542 1.50538 16.1063 1.40417C17.0805 1.0259 18.137 0.910412 19.1699 1.06927C20.2035 1.22191 21.1695 1.67507 21.9477 2.3724C22.1384 2.55095 22.279 2.77633 22.3555 3.02612C22.4319 3.2759 22.4417 3.54136 22.3837 3.79607L21.3322 8.59218" stroke="#CFCFCF" stroke-width="2" stroke-linecap="round" stroke-linejoin="round"/>
<path d="M6.33986 27.5483C11.5668 28.0764 16.7443 29.0127 21.8252 30.3485C21.6528 31.7178 21.4806 33.0875 21.28 34.5485C16.7656 34.0325 10.9648 33.0181 6.1233 31.9612C6.07724 30.4869 6.14965 29.0112 6.33986 27.5483Z" stroke="#CFCFCF" stroke-width="2" stroke-linecap="round" stroke-linejoin="round"/>
<path d="M9.41004 32.6418C8.33093 33.8772 7.3188 35.1685 6.36621 36.5006C7.20638 37.3512 8.11487 38.1316 9.08258 38.8338C10.5375 37.0177 11.9912 35.2031 13.4437 33.3898" stroke="#CFCFCF" stroke-width="2" stroke-linecap="round" stroke-linejoin="round"/>
<path d="M15.508 33.7388C15.3405 35.4542 15.1731 37.1697 15.0205 38.9073C16.2484 39.3098 17.5353 39.5022 18.8272 39.4768C18.9351 37.7502 19.1087 36.0285 19.3481 34.312V34.3081" stroke="#CFCFCF" stroke-width="2" stroke-linecap="round" stroke-linejoin="round"/>
<path d="M23.6097 48.382C16.0745 46.0452 8.53814 43.7058 1.00049 41.364" stroke="#CFCFCF" stroke-width="2" stroke-linecap="round" stroke-linejoin="round"/>
<path d="M40.7418 45.6283C41.9217 47.3749 42.8862 49.2577 43.6146 51.2359C44.076 52.5605 44.2955 54.2351 43.2648 55.1839C42.5093 55.8798 41.3743 55.9058 40.3475 55.891L1.20915 55.3122C1.0941 54.6898 1.12966 54.0489 1.31285 53.443C1.49605 52.8372 1.82156 52.2838 2.2622 51.8293C3.15257 50.9691 4.28482 50.4015 5.50699 50.2032C6.72225 50.0095 7.95429 49.9422 9.18341 50.0022C13.7008 50.0618 18.2219 50.1226 22.7467 50.1848C23.0445 49.5892 23.3308 48.9866 23.6099 48.3837C24.0528 47.4235 24.4882 46.4636 24.9719 45.526C26.0213 43.4831 27.3534 41.507 29.2661 40.242C30.1256 39.6703 31.0953 39.285 32.1126 39.1106C33.3635 38.8675 34.6597 39.0565 35.7891 39.6466C37.1548 40.3946 38.0887 41.7229 38.9743 43.0066C39.5696 43.8737 40.1688 44.7427 40.7418 45.6283Z" stroke="#CFCFCF" stroke-width="2" stroke-linecap="round" stroke-linejoin="round"/>
<path d="M33.4173 45.0569C32.9024 45.0113 32.3851 45.1113 31.9242 45.3454C31.4634 45.5793 31.0775 45.9382 30.8107 46.3808C30.5439 46.8237 30.4067 47.3324 30.4149 47.8493C30.4231 48.3661 30.5764 48.8703 30.8571 49.3042C31.1379 49.7383 31.535 50.0846 32.0031 50.3039C32.4711 50.5232 32.9914 50.6066 33.5046 50.5447C34.0178 50.4826 34.5033 50.2777 34.9056 49.9532C35.308 49.6288 35.6112 49.198 35.7806 48.7095C35.9272 48.2771 35.964 47.8151 35.8877 47.3649C35.8113 46.9149 35.6243 46.4907 35.3433 46.1308C34.8628 45.5393 34.1733 45.1549 33.4173 45.0569Z" stroke="#CFCFCF" stroke-width="2" stroke-linecap="round" stroke-linejoin="round"/>
<path d="M20.7847 23.4592C24.1572 24.4149 27.1092 26.4791 29.1643 29.3188C31.2195 32.1585 32.2577 35.6077 32.1115 39.11" stroke="#CFCFCF" stroke-width="2" stroke-linecap="round" stroke-linejoin="round"/>
<path d="M22.6831 13.5859C27.1688 14.1935 31.3191 16.2948 34.4639 19.5508C37.9989 23.1641 40.213 27.9605 41.0764 32.9392C41.7579 37.1527 41.6444 41.4565 40.7414 45.6281" stroke="#CFCFCF" stroke-width="2" stroke-linecap="round" stroke-linejoin="round"/>
</svg>
