<svg width="43" height="31" viewBox="0 0 43 31" fill="none" xmlns="http://www.w3.org/2000/svg">
<path d="M1.79167 3.58333H41.2083C42.2833 3.58333 43 2.86667 43 1.79167C43 0.716667 42.2833 0 41.2083 0H1.79167C0.716667 0 0 0.716667 0 1.79167C0 2.86667 0.716667 3.58333 1.79167 3.58333Z" fill="#CFCFCF"/>
<path d="M41.2083 13.4375H1.79167C0.716667 13.4375 0 14.1542 0 15.2292C0 16.3042 0.716667 17.0208 1.79167 17.0208H41.2083C42.2833 17.0208 43 16.3042 43 15.2292C43 14.1542 42.2833 13.4375 41.2083 13.4375Z" fill="#CFCFCF"/>
<path d="M41.2083 26.875H1.79167C0.716667 26.875 0 27.5917 0 28.6667C0 29.7417 0.716667 30.4583 1.79167 30.4583H41.2083C42.2833 30.4583 43 29.7417 43 28.6667C43 27.5917 42.2833 26.875 41.2083 26.875Z" fill="#CFCFCF"/>
</svg>
