<svg width="43" height="43" viewBox="0 0 43 43" fill="none" xmlns="http://www.w3.org/2000/svg">
<path d="M38.0585 9.29776C39.0359 8.31086 39.6407 6.95434 39.6407 5.459C39.6407 2.44891 37.1918 0 34.1817 0C31.1716 0 28.7227 2.44891 28.7227 5.459C28.7227 6.95434 29.3275 8.31086 30.3049 9.29776C27.3808 10.7351 25.3633 13.7446 25.3633 17.2168V17.6431C22.0066 17.776 19.3164 20.5468 19.3164 23.9356V36.7012C19.3164 38.7852 17.621 40.4805 15.5371 40.4805C13.4532 40.4805 11.7578 38.7852 11.7578 36.7012V27.5162C13.2435 27.0363 14.3777 25.7312 14.5801 24.1112L14.8868 21.6577C15.6551 21.2812 16.3777 20.8053 17.0337 20.2364C18.8474 18.6634 20.0332 16.4882 20.3727 14.1114L20.9519 10.057C20.9813 9.85197 20.9961 9.64277 20.9961 9.43524C20.9961 7.0112 19.024 5.03907 16.5999 5.03907H15.9571V4.61915C15.9571 3.92342 15.393 3.35938 14.6973 3.35938C14.0016 3.35938 13.4375 3.92342 13.4375 4.61915V7.97853C13.4375 8.67426 14.0016 9.2383 14.6973 9.2383C15.393 9.2383 15.9571 8.67426 15.9571 7.97853V7.55861H16.5999C17.6347 7.55861 18.4766 8.40047 18.4766 9.43533C18.4766 9.52401 18.4703 9.61321 18.4577 9.70072L17.8785 13.7552C17.3573 17.4044 14.1843 20.1563 10.4981 20.1563C6.81182 20.1563 3.63888 17.4044 3.11767 13.7552L2.53835 9.70063C2.52592 9.61321 2.51954 9.52393 2.51954 9.43533C2.51954 8.40047 3.3614 7.55861 4.39625 7.55861H5.03907V7.97853C5.03907 8.67426 5.60311 9.2383 6.29884 9.2383C6.99457 9.2383 7.55861 8.67426 7.55861 7.97853V4.61915C7.55861 3.92342 6.99457 3.35938 6.29884 3.35938C5.60311 3.35938 5.03907 3.92342 5.03907 4.61915V5.03907H4.39625C1.97212 5.03907 0 7.0112 0 9.43533C0 9.64294 0.0148653 9.85206 0.0440919 10.057L0.623333 14.1115C0.962883 16.4883 2.14866 18.6634 3.96239 20.2365C4.61831 20.8054 5.34083 21.2813 6.10929 21.6578L6.416 24.1112C6.61832 25.7313 7.75261 27.0364 9.23822 27.5163V36.7012C9.23822 40.1744 12.0639 43.0001 15.5371 43.0001C19.0102 43.0001 21.8359 40.1744 21.8359 36.7012V23.9356C21.8359 21.9364 23.3964 20.2958 25.3632 20.1656V23.9356C25.3632 25.5779 26.4165 26.9782 27.8828 27.4982V39.2208C27.8828 41.3047 29.5782 43.0001 31.6621 43.0001H36.7012C38.7851 43.0001 40.4805 41.3047 40.4805 39.2208V27.4982C41.9467 26.9782 43 25.5779 43 23.9356V17.2168C43.0001 13.7446 40.9826 10.7351 38.0585 9.29776ZM10.4981 25.1954C9.69568 25.1954 9.01557 24.595 8.91605 23.7988L8.75648 22.5222C9.32808 22.6236 9.91068 22.6758 10.4981 22.6758C11.0855 22.6758 11.6681 22.6236 12.2397 22.5222L12.0801 23.7989C11.9806 24.595 11.3005 25.1954 10.4981 25.1954ZM34.1817 2.51954C35.8025 2.51954 37.1212 3.83818 37.1212 5.459C37.1212 7.07981 35.8025 8.39845 34.1817 8.39845C32.5609 8.39845 31.2422 7.07981 31.2422 5.459C31.2422 3.83818 32.5609 2.51954 34.1817 2.51954ZM37.961 39.2208C37.961 39.9154 37.3959 40.4805 36.7012 40.4805H35.4415V33.1739C35.4415 32.4782 34.8774 31.9141 34.1817 31.9141C33.486 31.9141 32.9219 32.4782 32.9219 33.1739V40.4805H31.6622C30.9675 40.4805 30.4024 39.9154 30.4024 39.2208V27.7149H37.961V39.2208ZM40.4805 23.9356C40.4805 24.6302 39.9154 25.1954 39.2208 25.1954H29.1426C28.448 25.1954 27.8829 24.6302 27.8829 23.9356V20.1563H30.6191C31.1391 21.6226 32.5394 22.6758 34.1817 22.6758C36.2656 22.6758 37.961 20.9804 37.961 18.8965C37.961 16.8126 36.2656 15.1172 34.1817 15.1172C32.5394 15.1172 31.1391 16.1705 30.6191 17.6368H27.8829V17.2168C27.8829 13.7436 30.7085 10.918 34.1817 10.918C37.6549 10.918 40.4805 13.7436 40.4805 17.2168V23.9356ZM32.9219 18.8965C32.9219 18.2019 33.4871 17.6368 34.1817 17.6368C34.8763 17.6368 35.4415 18.2019 35.4415 18.8965C35.4415 19.5912 34.8763 20.1563 34.1817 20.1563C33.4871 20.1563 32.9219 19.5912 32.9219 18.8965Z" fill="#CFCFCF"/>
</svg>
