<svg width="43" height="41" viewBox="0 0 43 41" fill="none" xmlns="http://www.w3.org/2000/svg">
<path d="M41.6562 26C40.9145 26 40.3125 26.6058 40.3125 27.3476V37.9368H2.6875V21.8118H17.4688C18.2105 21.8118 18.8125 21.2098 18.8125 20.468C18.8125 19.7263 18.2105 19.1243 17.4688 19.1243H2.6875V13.7493H17.4688C18.2105 13.7493 18.8125 13.1473 18.8125 12.4055C18.8125 11.6638 18.2105 11.0618 17.4688 11.0618H2.6875C1.204 11.0618 0 12.2658 0 13.7493V37.9368C0 39.4203 1.204 40.6243 2.6875 40.6243H40.3125C41.796 40.6243 43 39.4203 43 37.9368V27.3476C43 26.6058 42.398 26 41.6562 26Z" fill="#CFCFCF"/>
<path d="M12.0938 27.1868H6.71875C5.977 27.1868 5.375 27.7888 5.375 28.5305C5.375 29.2723 5.977 29.8743 6.71875 29.8743H12.0938C12.8355 29.8743 13.4375 29.2723 13.4375 28.5305C13.4375 27.7888 12.8355 27.1868 12.0938 27.1868Z" fill="#CFCFCF"/>
<path d="M42.1857 4.13809L32.7794 0.106828C32.4381 -0.0356095 32.0592 -0.0356095 31.7179 0.106828L22.3116 4.13809C21.8198 4.3504 21.5 4.83684 21.5 5.37434V10.7494C21.5 18.1427 24.2332 22.4642 31.5808 26.697C31.7878 26.8153 32.0189 26.8744 32.25 26.8744C32.4811 26.8744 32.7122 26.8153 32.9192 26.697C40.2668 22.475 43 18.1534 43 10.7494V5.37434C43 4.83684 42.6802 4.3504 42.1857 4.13809ZM40.3125 10.7494C40.3125 16.9548 38.2593 20.3706 32.25 23.9719C26.2407 20.3626 24.1875 16.9468 24.1875 10.7494V6.26122L32.25 2.80509L40.3125 6.26122V10.7494Z" fill="#CFCFCF"/>
<path d="M37.1225 8.35471C36.5447 7.89784 35.7008 7.98653 35.2332 8.56434L31.0084 13.848L29.3368 11.3486C28.9202 10.7305 28.0844 10.5665 27.4744 10.975C26.8589 11.3862 26.6896 12.222 27.1008 12.8375L29.7883 16.8687C30.0275 17.2262 30.4199 17.4466 30.8499 17.4681C30.8687 17.4681 30.8902 17.4681 30.9063 17.4681C31.3121 17.4681 31.6991 17.2853 31.9571 16.9628L37.3321 10.244C37.7944 9.66353 37.703 8.81965 37.1225 8.35471Z" fill="#CFCFCF"/>
</svg>
