<svg width="46" height="46" viewBox="0 0 46 46" fill="none" xmlns="http://www.w3.org/2000/svg">
<path d="M1.25 27.0498V44.2495M1.25 41.383H32.7832C32.7832 39.8624 32.1793 38.4041 31.1041 37.3289C30.0289 36.2537 28.5704 35.6497 27.05 35.6497H19.8832M19.8832 35.6497C19.8832 34.1291 19.2792 32.6708 18.204 31.5956C17.1288 30.5204 15.6705 29.9163 14.15 29.9163H1.25M19.8832 35.6497H12.7166M12.4873 1.25H41.6125C42.3188 1.26007 42.9924 1.54902 43.4865 2.05383C43.9806 2.55862 44.255 3.23832 44.2499 3.94465V20.5329C44.255 21.2393 43.9806 21.9189 43.4865 22.4238C42.9924 22.9286 42.3188 23.2175 41.6125 23.2277H12.4873C11.781 23.2175 11.1074 22.9286 10.6133 22.4238C10.1193 21.9189 9.84485 21.2393 9.84997 20.5329V3.94465C9.84485 3.23832 10.1193 2.55862 10.6133 2.05383C11.1074 1.54902 11.781 1.26007 12.4873 1.25Z" stroke="#CFCFCF" stroke-width="2.5" stroke-linecap="round" stroke-linejoin="round"/>
<path d="M15.1055 7.46094H17.9721M36.1276 17.0164H38.9943M22.7499 12.2387C22.7499 13.3791 23.203 14.4728 24.0093 15.2792C24.8157 16.0856 25.9095 16.5386 27.0499 16.5386C28.1902 16.5386 29.284 16.0856 30.0904 15.2792C30.8969 14.4728 31.3499 13.3791 31.3499 12.2387C31.3499 11.0983 30.8969 10.0045 30.0904 9.19815C29.284 8.39175 28.1902 7.93873 27.0499 7.93873C25.9095 7.93873 24.8157 8.39175 24.0093 9.19815C23.203 10.0045 22.7499 11.0983 22.7499 12.2387Z" stroke="#CFCFCF" stroke-width="2.5" stroke-linecap="round" stroke-linejoin="round"/>
</svg>
