<svg width="43" height="43" viewBox="0 0 43 43" fill="none" xmlns="http://www.w3.org/2000/svg">
<path d="M2.92188 0.150391V40.0781H42.8496V42.8496H1.59766L0.150391 41.4023V0.150391H2.92188ZM38.3311 3.22168L39.7783 4.66895V35.2598L38.3311 36.707H32.3125L30.8643 35.2588V4.66895L32.3125 3.22168H38.3311ZM26.0449 15.5068L27.4932 16.9551V35.2588L26.0449 36.707H20.0264L18.5781 35.2588V16.9551L20.0264 15.5068H26.0449ZM13.7598 9.36426L15.207 10.8115V35.2598L13.7598 36.707H7.74023L6.29297 35.2598V10.8115L7.74023 9.36426H13.7598ZM9.06445 33.9355H12.4355V12.1357H9.06445V33.9355ZM21.3496 33.9355H24.7217V18.2783H21.3496V33.9355ZM33.6357 33.9355H37.0068V5.99316H33.6357V33.9355Z" fill="#CFCFCF" stroke="#08123A" stroke-width="0.3"/>
</svg>
