<svg width="43" height="43" viewBox="0 0 43 43" fill="none" xmlns="http://www.w3.org/2000/svg">
<path d="M38.7975 15.7667H38.614C38.3451 15.7643 38.0831 15.681 37.8622 15.5276C37.6413 15.3742 37.4718 15.1578 37.3756 14.9067C37.2744 14.6641 37.2476 14.397 37.2986 14.1392C37.3497 13.8814 37.4762 13.6446 37.6623 13.459L37.7927 13.3286C38.579 12.5393 39.0204 11.4706 39.0204 10.3565C39.0204 9.24248 38.579 8.17381 37.7927 7.38453L35.6269 5.2202C34.8383 4.43333 33.7697 3.99142 32.6556 3.99142C31.5416 3.99142 30.473 4.43333 29.6843 5.2202L29.5539 5.35063C29.3617 5.5357 29.1197 5.66064 28.8576 5.71012C28.5954 5.75961 28.3245 5.73149 28.0781 5.62921C27.8317 5.52693 27.6205 5.35495 27.4704 5.13436C27.3204 4.91378 27.238 4.65418 27.2333 4.38743V4.20253C27.2322 3.0883 26.7891 2.02003 26.0012 1.23215C25.2133 0.44427 24.145 0.00113833 23.0308 0H19.9692C18.855 0.00113833 17.7867 0.44427 16.9988 1.23215C16.2109 2.02003 15.7678 3.0883 15.7667 4.20253V4.38743C15.7597 4.65227 15.6761 4.9094 15.526 5.1277C15.3759 5.346 15.1657 5.5161 14.9209 5.61742C14.6761 5.71873 14.4072 5.74691 14.1467 5.69854C13.8862 5.65018 13.6454 5.52734 13.4533 5.3449L13.33 5.21447C12.5413 4.4276 11.4728 3.98569 10.3587 3.98569C9.24463 3.98569 8.17606 4.4276 7.3874 5.21447L5.21447 7.3788C4.42821 8.16807 3.98675 9.23675 3.98675 10.3508C3.98675 11.4649 4.42821 12.5336 5.21447 13.3228L5.3449 13.4533C5.53274 13.6454 5.65847 13.8897 5.70576 14.1542C5.75304 14.4188 5.7197 14.6914 5.61007 14.9368C5.51171 15.1811 5.3427 15.3906 5.12466 15.5385C4.90661 15.6863 4.64943 15.7658 4.386 15.7667H4.20253C3.0883 15.7678 2.02003 16.2109 1.23215 16.9988C0.44427 17.7867 0.00113833 18.855 0 19.9692V23.0308C0.00113833 24.145 0.44427 25.2133 1.23215 26.0012C2.02003 26.7891 3.0883 27.2322 4.20253 27.2333H4.386C4.65492 27.2357 4.91689 27.319 5.13778 27.4724C5.35867 27.6258 5.52824 27.8422 5.6244 28.0933C5.72564 28.3358 5.75244 28.603 5.70139 28.8608C5.65034 29.1186 5.52375 29.3554 5.33773 29.541L5.2073 29.6714C4.42104 30.4607 3.97958 31.5294 3.97958 32.6434C3.97958 33.7575 4.42104 34.8262 5.2073 35.6155L7.37163 37.7784C8.16016 38.566 9.22912 39.0084 10.3437 39.0084C11.4582 39.0084 12.5271 38.566 13.3157 37.7784L13.4461 37.6479C13.6384 37.4603 13.8826 37.3346 14.1471 37.2874C14.4116 37.2401 14.6842 37.2733 14.9296 37.3828C15.174 37.4807 15.3835 37.6494 15.5314 37.8672C15.6793 38.0851 15.7587 38.3421 15.7595 38.6054V38.7903C15.7591 39.3432 15.8678 39.8908 16.0792 40.4017C16.2906 40.9126 16.6007 41.3769 16.9917 41.7678C17.3826 42.1588 17.8469 42.4689 18.3578 42.6803C18.8687 42.8917 19.4163 43.0004 19.9692 43H23.0308C24.145 42.9989 25.2133 42.5557 26.0012 41.7678C26.7891 40.98 27.2322 39.9117 27.2333 38.7975V38.6126C27.2403 38.3477 27.3239 38.0906 27.474 37.8723C27.6241 37.654 27.8343 37.4839 28.0791 37.3826C28.3239 37.2813 28.5928 37.2531 28.8533 37.3015C29.1138 37.3498 29.3546 37.4727 29.5467 37.6551L29.6772 37.7855C30.4658 38.5724 31.5344 39.0143 32.6485 39.0143C33.7625 39.0143 34.8311 38.5724 35.6198 37.7855L37.7855 35.6226C38.5718 34.8334 39.0133 33.7647 39.0133 32.6506C39.0133 31.5365 38.5718 30.4679 37.7855 29.6786L37.6551 29.5482C37.4673 29.356 37.3415 29.1118 37.2942 28.8472C37.247 28.5827 37.2803 28.31 37.3899 28.0647C37.4881 27.82 37.657 27.6102 37.875 27.4621C38.0931 27.314 38.3504 27.2344 38.614 27.2333H38.7975C39.9117 27.2322 40.98 26.7891 41.7678 26.0012C42.5557 25.2133 42.9989 24.145 43 23.0308V19.9692C42.9989 18.855 42.5557 17.7867 41.7678 16.9988C40.98 16.2109 39.9117 15.7678 38.7975 15.7667ZM40.1333 23.0308C40.133 23.385 39.9921 23.7245 39.7416 23.975C39.4912 24.2254 39.1516 24.3663 38.7975 24.3667H38.614C37.7822 24.3737 36.9709 24.6255 36.2813 25.0905C35.5916 25.5556 35.0541 26.2133 34.7357 26.9818C34.4174 27.7503 34.3322 28.5955 34.491 29.412C34.6497 30.2285 35.0453 30.9802 35.6284 31.5735L35.7574 31.7039C36.0076 31.9548 36.1481 32.2948 36.1481 32.6492C36.1481 33.0036 36.0076 33.3435 35.7574 33.5945L33.5916 35.7574C33.3411 36.0079 33.0013 36.1486 32.647 36.1486C32.2928 36.1486 31.953 36.0079 31.7025 35.7574L31.5735 35.6269C30.98 35.0445 30.2283 34.6496 29.412 34.4912C28.5957 34.3329 27.7509 34.4181 26.9827 34.7364C26.2145 35.0546 25.5569 35.5918 25.0917 36.281C24.6265 36.9703 24.3744 37.7811 24.3667 38.6126V38.7975C24.3663 39.1516 24.2254 39.4912 23.975 39.7416C23.7245 39.9921 23.385 40.133 23.0308 40.1333H19.9692C19.615 40.133 19.2755 39.9921 19.025 39.7416C18.7746 39.4912 18.6337 39.1516 18.6333 38.7975V38.6126C18.6293 37.7794 18.3793 36.966 17.9147 36.2744C17.4501 35.5828 16.7916 35.0438 16.0218 34.725C15.2521 34.4063 14.4053 34.322 13.5878 34.4827C12.7702 34.6434 12.0184 35.0419 11.4265 35.6284L11.2961 35.7588C11.0452 36.0086 10.7056 36.1488 10.3515 36.1488C9.99749 36.1488 9.65786 36.0086 9.40697 35.7588L7.24263 33.5959C6.99239 33.3449 6.85187 33.005 6.85187 32.6506C6.85187 32.2962 6.99239 31.9563 7.24263 31.7053L7.37307 31.5749C7.95671 30.9817 8.35273 30.2297 8.51169 29.4128C8.67065 28.5959 8.58552 27.7503 8.26693 26.9815C7.94834 26.2126 7.41038 25.5547 6.7202 25.0897C6.03003 24.6247 5.21819 24.3732 4.386 24.3667H4.20253C3.84836 24.3663 3.50879 24.2254 3.25835 23.975C3.00791 23.7245 2.86705 23.385 2.86667 23.0308V19.9692C2.86705 19.615 3.00791 19.2755 3.25835 19.025C3.50879 18.7746 3.84836 18.6337 4.20253 18.6333H4.386C5.21777 18.6263 6.02907 18.3745 6.71873 17.9095C7.40839 17.4444 7.94591 16.7866 8.26427 16.0182C8.58263 15.2497 8.66775 14.4045 8.50902 13.588C8.35028 12.7715 7.95471 12.0198 7.37163 11.4265L7.24263 11.2961C6.99248 11.0454 6.85199 10.7057 6.85199 10.3515C6.85199 9.99737 6.99248 9.65767 7.24263 9.40697L9.40697 7.2412C9.65749 6.9907 9.99726 6.84997 10.3515 6.84997C10.7058 6.84997 11.0456 6.9907 11.2961 7.2412L11.4251 7.37163C12.0184 7.95444 12.7701 8.3498 13.5865 8.50848C14.4029 8.66716 15.248 8.58213 16.0164 8.264C16.7848 7.94588 17.4427 7.4087 17.908 6.71938C18.3733 6.03007 18.6256 5.21908 18.6333 4.38743V4.20253C18.6337 3.84836 18.7746 3.50879 19.025 3.25835C19.2755 3.00791 19.615 2.86705 19.9692 2.86667H23.0308C23.385 2.86705 23.7245 3.00791 23.975 3.25835C24.2254 3.50879 24.3663 3.84836 24.3667 4.20253V4.38743C24.374 5.21909 24.626 6.03018 25.0911 6.71963C25.5563 7.40907 26.2141 7.94637 26.9825 8.26456C27.7509 8.58274 28.596 8.66774 29.4123 8.50896C30.2287 8.35018 30.9803 7.95463 31.5735 7.37163L31.7039 7.2412C31.9544 6.9907 32.2942 6.84997 32.6485 6.84997C33.0027 6.84997 33.3425 6.9907 33.593 7.2412L35.7574 9.40697C36.0075 9.65767 36.148 9.99737 36.148 10.3515C36.148 10.7057 36.0075 11.0454 35.7574 11.2961L35.6269 11.4265C35.0438 12.0198 34.6482 12.7717 34.4895 13.5884C34.3308 14.405 34.416 15.2503 34.7346 16.0188C35.0531 16.7874 35.5909 17.4451 36.2807 17.91C36.9706 18.375 37.7821 18.6265 38.614 18.6333H38.7975C39.1516 18.6337 39.4912 18.7746 39.7416 19.025C39.9921 19.2755 40.133 19.615 40.1333 19.9692V23.0308Z" fill="#CFCFCF"/>
<path d="M21.5001 11.4666C19.5157 11.4666 17.5759 12.055 15.9259 13.1575C14.2759 14.26 12.9899 15.8269 12.2305 17.6603C11.4711 19.4936 11.2725 21.511 11.6596 23.4573C12.0467 25.4036 13.0023 27.1913 14.4055 28.5945C15.8087 29.9977 17.5965 30.9533 19.5427 31.3404C21.489 31.7276 23.5064 31.5289 25.3397 30.7695C27.1731 30.0101 28.7401 28.7241 29.8425 27.0741C30.945 25.4241 31.5335 23.4843 31.5335 21.4999C31.5304 18.8398 30.4724 16.2896 28.5914 14.4086C26.7105 12.5276 24.1602 11.4696 21.5001 11.4666ZM21.5001 28.6666C20.0827 28.6666 18.6971 28.2462 17.5185 27.4588C16.34 26.6713 15.4214 25.552 14.879 24.2425C14.3366 22.9329 14.1946 21.4919 14.4712 20.1017C14.7477 18.7115 15.4303 17.4346 16.4325 16.4323C17.4348 15.43 18.7118 14.7475 20.102 14.4709C21.4922 14.1944 22.9332 14.3363 24.2427 14.8787C25.5522 15.4212 26.6715 16.3397 27.459 17.5183C28.2465 18.6969 28.6668 20.0825 28.6668 21.4999C28.6645 23.3999 27.9087 25.2215 26.5652 26.565C25.2217 27.9085 23.4002 28.6643 21.5001 28.6666Z" fill="#CFCFCF"/>
</svg>
